<svg width="16" height="16" viewBox="0 0 16 16" fill="none" xmlns="http://www.w3.org/2000/svg">
<g clip-path="url(#clip0_125_1233)">
<path d="M7.654 0C5.88996 0.00194073 4.19872 0.703517 2.95129 1.95082C1.70386 3.19812 1.00212 4.8893 1 6.65333C1 8.36667 2.32667 11.048 4.94333 14.6227C5.25484 15.0494 5.6627 15.3966 6.13373 15.6359C6.60476 15.8753 7.12565 16 7.654 16C8.18235 16 8.70324 15.8753 9.17427 15.6359C9.6453 15.3966 10.0532 15.0494 10.3647 14.6227C12.9813 11.048 14.308 8.36667 14.308 6.65333C14.3059 4.8893 13.6041 3.19812 12.3567 1.95082C11.1093 0.703517 9.41804 0.00194073 7.654 0ZM7.654 9.30533C7.12658 9.30533 6.61101 9.14894 6.17248 8.85592C5.73395 8.5629 5.39215 8.14643 5.19032 7.65916C4.98849 7.17189 4.93568 6.63571 5.03857 6.11843C5.14147 5.60114 5.39544 5.12599 5.76838 4.75305C6.14132 4.38011 6.61648 4.12613 7.13376 4.02324C7.65104 3.92035 8.18722 3.97315 8.67449 4.17499C9.16176 4.37682 9.57824 4.71862 9.87125 5.15715C10.1643 5.59568 10.3207 6.11125 10.3207 6.63867C10.3207 7.34591 10.0397 8.02419 9.53962 8.52429C9.03952 9.02438 8.36124 9.30533 7.654 9.30533Z" fill="#1A1A1A"/>
</g>
<defs>
<clipPath id="clip0_125_1233">
<rect width="16" height="16" fill="white"/>
</clipPath>
</defs>
</svg>
